<?xml version="1.0" encoding="UTF-8"?>
<svg width="1358.99px" height="314.88px" viewBox="0 0 1358.99 314.88" version="1.1" xmlns="http://www.w3.org/2000/svg" xmlns:xlink="http://www.w3.org/1999/xlink">
    <title>app-playstore</title>
    <g id="Page-1" stroke="none" stroke-width="1" fill="none" fill-rule="evenodd">
        <g id="app-playstore" transform="translate(-84.330000, -77.027000)" fill-rule="nonzero">
            <path d="M362.26,223.077 L304.9,189.976 L257.72,235.58 L300.84,277.258 L362.26,241.804 C365.64,239.856 367.66,236.352 367.66,232.446 C367.66,228.537 365.64,225.035 362.26,223.077" id="Fill-27" fill="#FFD109"></path>
            <polyline id="Fill-28" fill="#06EF79" points="295.16 184.353 232.04 147.917 93.71 77.027 249.95 228.062 295.16 184.353"></polyline>
            <polyline id="Fill-29" fill="#F93646" points="96 391.907 232.27 316.837 291.1 282.881 249.95 243.097 96 391.907"></polyline>
            <polyline id="Fill-30" fill="#05D5FB" points="84.47 83.138 84.33 388.162 242.17 235.577 84.47 83.138"></polyline>
            <path d="M493.39,276.564 L514.39,276.564 L514.39,324.189 C508.24,329.083 501.07,332.839 492.88,335.455 C484.69,338.071 476.27,339.381 467.62,339.381 C455.44,339.381 444.46,336.735 434.67,331.444 C424.88,326.152 417.2,318.841 411.63,309.508 C406.05,300.179 403.26,289.651 403.26,277.929 C403.26,266.21 406.05,255.682 411.63,246.349 C417.2,237.02 424.91,229.706 434.76,224.415 C444.6,219.123 455.67,216.477 467.96,216.477 C477.97,216.477 487.08,218.128 495.27,221.427 C503.47,224.729 510.35,229.565 515.93,235.937 L501.93,249.593 C492.82,240.49 481.84,235.937 468.98,235.937 C460.56,235.937 453.08,237.702 446.54,241.229 C439.99,244.757 434.87,249.708 431.17,256.079 C427.47,262.454 425.63,269.735 425.63,277.929 C425.63,285.896 427.47,293.065 431.17,299.438 C434.87,305.812 439.99,310.818 446.54,314.459 C453.08,318.102 460.5,319.921 468.81,319.921 C478.14,319.921 486.34,317.873 493.39,313.776 L493.39,276.564" id="Fill-56" fill="#000000"></path>
            <path d="M601.96,312.752 C607.08,307.519 609.64,300.632 609.64,292.097 C609.64,283.562 607.08,276.678 601.96,271.442 C596.84,266.21 590.35,263.59 582.5,263.59 C574.65,263.59 568.19,266.21 563.12,271.442 C558.06,276.678 555.53,283.562 555.53,292.097 C555.53,300.632 558.06,307.519 563.12,312.752 C568.19,317.988 574.65,320.604 582.5,320.604 C590.35,320.604 596.84,317.988 601.96,312.752 Z M557.57,332.895 C550.18,328.913 544.4,323.365 540.25,316.251 C536.09,309.141 534.02,301.088 534.02,292.097 C534.02,283.109 536.09,275.086 540.25,268.028 C544.4,260.974 550.18,255.455 557.57,251.47 C564.97,247.488 573.28,245.496 582.5,245.496 C591.83,245.496 600.19,247.488 607.59,251.47 C614.99,255.455 620.76,260.974 624.92,268.028 C629.07,275.086 631.15,283.109 631.15,292.097 C631.15,301.088 629.07,309.141 624.92,316.251 C620.76,323.365 614.99,328.913 607.59,332.895 C600.19,336.879 591.83,338.869 582.5,338.869 C573.28,338.869 564.97,336.879 557.57,332.895 L557.57,332.895 Z" id="Fill-57" fill="#000000"></path>
            <path d="M712.06,312.752 C717.18,307.519 719.74,300.632 719.74,292.097 C719.74,283.562 717.18,276.678 712.06,271.442 C706.94,266.21 700.45,263.59 692.6,263.59 C684.74,263.59 678.29,266.21 673.22,271.442 C668.16,276.678 665.63,283.562 665.63,292.097 C665.63,300.632 668.16,307.519 673.22,312.752 C678.29,317.988 684.74,320.604 692.6,320.604 C700.45,320.604 706.94,317.988 712.06,312.752 Z M667.68,332.895 C660.28,328.913 654.5,323.365 650.35,316.251 C646.19,309.141 644.12,301.088 644.12,292.097 C644.12,283.109 646.19,275.086 650.35,268.028 C654.5,260.974 660.28,255.455 667.68,251.47 C675.07,247.488 683.38,245.496 692.6,245.496 C701.93,245.496 710.29,247.488 717.69,251.47 C725.09,255.455 730.86,260.974 735.02,268.028 C739.17,275.086 741.25,283.109 741.25,292.097 C741.25,301.088 739.17,309.141 735.02,316.251 C730.86,323.365 725.09,328.913 717.69,332.895 C710.29,336.879 701.93,338.869 692.6,338.869 C683.38,338.869 675.07,336.879 667.68,332.895 L667.68,332.895 Z" id="Fill-58" fill="#000000"></path>
            <path d="M823.44,308.229 C828.61,303.393 831.2,297.106 831.2,289.366 C831.2,281.743 828.61,275.539 823.44,270.76 C818.26,265.98 811.63,263.59 803.55,263.59 C795.36,263.59 788.67,265.98 783.49,270.76 C778.31,275.539 775.73,281.743 775.73,289.366 C775.73,297.106 778.31,303.393 783.49,308.229 C788.67,313.067 795.36,315.483 803.55,315.483 C811.63,315.483 818.26,313.067 823.44,308.229 Z M852.2,246.52 L852.2,323.848 C852.2,355.939 835.81,371.985 803.04,371.985 C794.27,371.985 785.97,370.876 778.12,368.656 C770.26,366.437 763.78,363.221 758.66,359.012 L768.22,342.966 C772.2,346.265 777.23,348.911 783.32,350.904 C789.41,352.893 795.58,353.891 801.84,353.891 C811.86,353.891 819.2,351.613 823.86,347.063 C828.53,342.51 830.86,335.57 830.86,326.237 L830.86,321.458 C827.22,325.442 822.78,328.457 817.55,330.504 C812.31,332.553 806.56,333.578 800.31,333.578 C791.66,333.578 783.83,331.729 776.84,328.03 C769.84,324.333 764.32,319.127 760.28,312.411 C756.24,305.697 754.22,298.016 754.22,289.366 C754.22,280.719 756.24,273.064 760.28,266.407 C764.32,259.75 769.84,254.602 776.84,250.959 C783.83,247.318 791.66,245.496 800.31,245.496 C806.91,245.496 812.91,246.579 818.32,248.739 C823.72,250.902 828.24,254.202 831.89,258.64 L831.89,246.52 L852.2,246.52 L852.2,246.52 Z" id="Fill-59" fill="#000000"></path>
            <polygon id="Fill-60" fill="#000000" points="880.19 337.674 901.53 337.674 901.53 211.015 880.19 211.015"></polygon>
            <path d="M951.8,268.626 C947.07,272.667 944.2,278.044 943.18,284.757 L994.9,284.757 C993.99,278.158 991.2,272.808 986.54,268.711 C981.87,264.615 976.06,262.566 969.12,262.566 C962.3,262.566 956.52,264.588 951.8,268.626 Z M1014.87,298.925 L943.35,298.925 C944.6,305.641 947.87,310.96 953.16,314.886 C958.46,318.812 965.03,320.775 972.88,320.775 C982.89,320.775 991.15,317.476 997.63,310.874 L1009.07,324.018 C1004.97,328.913 999.79,332.612 993.53,335.114 C987.27,337.618 980.22,338.869 972.37,338.869 C962.35,338.869 953.53,336.879 945.91,332.895 C938.28,328.913 932.4,323.365 928.24,316.251 C924.09,309.141 922.01,301.088 922.01,292.097 C922.01,283.221 924.03,275.227 928.07,268.114 C932.11,261.003 937.72,255.455 944.89,251.47 C952.05,247.488 960.13,245.496 969.12,245.496 C978,245.496 985.94,247.459 992.94,251.385 C999.94,255.311 1005.4,260.833 1009.32,267.943 C1013.25,275.057 1015.21,283.279 1015.21,292.609 C1015.21,294.089 1015.1,296.194 1014.87,298.925 L1014.87,298.925 Z" id="Fill-61" fill="#000000"></path>
            <path d="M1155.01,278.271 C1160.02,274.173 1162.52,268.314 1162.52,260.688 C1162.52,253.065 1160.02,247.203 1155.01,243.106 C1150.01,239.009 1142.67,236.961 1132.99,236.961 L1107.05,236.961 L1107.05,284.416 L1132.99,284.416 C1142.67,284.416 1150.01,282.367 1155.01,278.271 Z M1161.07,223.305 C1168.76,226.719 1174.65,231.613 1178.74,237.985 C1182.84,244.36 1184.89,251.927 1184.89,260.688 C1184.89,269.338 1182.84,276.878 1178.74,283.306 C1174.65,289.737 1168.76,294.658 1161.07,298.072 C1153.39,301.486 1144.37,303.193 1134.02,303.193 L1107.05,303.193 L1107.05,337.674 L1084.86,337.674 L1084.86,218.184 L1134.02,218.184 C1144.37,218.184 1153.39,219.891 1161.07,223.305 L1161.07,223.305 Z" id="Fill-62" fill="#000000"></path>
            <polygon id="Fill-63" fill="#000000" points="1206.74 337.674 1228.07 337.674 1228.07 211.015 1206.74 211.015"></polygon>
            <path d="M1302.24,319.666 C1306.39,317.22 1309.32,313.72 1311.03,309.167 L1311.03,298.584 L1289.01,298.584 C1276.72,298.584 1270.58,302.625 1270.58,310.704 C1270.58,314.573 1272.11,317.647 1275.19,319.921 C1278.26,322.199 1282.52,323.335 1287.99,323.335 C1293.33,323.335 1298.09,322.114 1302.24,319.666 Z M1321.7,255.141 C1328.81,261.571 1332.37,271.272 1332.37,284.245 L1332.37,337.674 L1312.23,337.674 L1312.23,326.579 C1309.61,330.564 1305.88,333.607 1301.05,335.711 C1296.21,337.815 1290.38,338.869 1283.55,338.869 C1276.72,338.869 1270.75,337.701 1265.63,335.37 C1260.5,333.039 1256.55,329.795 1253.76,325.64 C1250.97,321.487 1249.58,316.793 1249.58,311.557 C1249.58,303.363 1252.62,296.791 1258.71,291.841 C1264.8,286.891 1274.39,284.416 1287.48,284.416 L1311.03,284.416 L1311.03,283.05 C1311.03,276.678 1309.13,271.784 1305.31,268.37 C1301.5,264.956 1295.84,263.249 1288.33,263.249 C1283.21,263.249 1278.17,264.046 1273.22,265.639 C1268.27,267.234 1264.09,269.453 1260.68,272.296 L1252.31,256.762 C1257.09,253.122 1262.84,250.335 1269.55,248.398 C1276.27,246.464 1283.38,245.496 1290.89,245.496 C1304.32,245.496 1314.59,248.713 1321.7,255.141 L1321.7,255.141 Z" id="Fill-64" fill="#000000"></path>
            <path d="M1443.32,246.52 L1400.65,345.014 C1396.66,354.915 1391.83,361.884 1386.14,365.925 C1380.45,369.963 1373.56,371.985 1365.48,371.985 C1360.93,371.985 1356.44,371.243 1352,369.766 C1347.56,368.286 1343.92,366.237 1341.07,363.621 L1349.61,347.917 C1351.66,349.85 1354.07,351.386 1356.86,352.525 C1359.65,353.662 1362.47,354.232 1365.31,354.232 C1369.07,354.232 1372.17,353.264 1374.62,351.33 C1377.06,349.394 1379.31,346.15 1381.36,341.6 L1382.9,338.016 L1343.12,246.52 L1365.31,246.52 L1393.99,313.947 L1422.84,246.52 L1443.32,246.52" id="Fill-65" fill="#000000"></path>
            <path d="M463.76,121.801 L447.96,121.801 L447.96,114.779 L471.6,114.779 L471.6,151.333 L463.76,151.333 L463.76,121.801 Z M441.45,151.85 C436.63,151.85 432.14,150.801 427.98,148.7 C423.81,146.601 420.18,143.779 417.08,140.233 C413.99,136.688 411.57,132.695 409.86,128.254 C408.13,123.815 407.27,119.219 407.27,114.469 C407.27,109.513 408.13,104.815 409.86,100.375 C411.57,95.935 413.97,91.994 417.03,88.552 C420.09,85.11 423.71,82.407 427.87,80.446 C432.04,78.484 436.56,77.502 441.45,77.502 C448.54,77.502 454.39,78.984 459.01,81.942 C463.62,84.903 467.1,88.758 469.44,93.508 L462.31,98.464 C460.18,94.196 457.25,91.03 453.53,88.964 C449.82,86.899 445.72,85.867 441.25,85.867 C437.53,85.867 434.15,86.659 431.13,88.241 C428.1,89.826 425.5,91.977 423.33,94.695 C421.16,97.416 419.51,100.496 418.37,103.937 C417.24,107.38 416.67,110.959 416.67,114.676 C416.67,118.6 417.31,122.301 418.58,125.776 C419.85,129.253 421.66,132.317 424,134.966 C426.34,137.618 429.06,139.7 432.16,141.214 C435.26,142.729 438.6,143.485 442.18,143.485 C446.37,143.485 450.37,142.419 454.15,140.284 C457.94,138.151 461.52,134.881 464.89,130.475 L464.89,140.078 C458.28,147.926 450.47,151.85 441.45,151.85 L441.45,151.85 Z" id="Fill-66" fill="#000000"></path>
            <polyline id="Fill-67" fill="#000000" points="535.52 143.072 535.52 151.333 485.75 151.333 485.75 78.019 534.59 78.019 534.59 86.28 495.04 86.28 495.04 110.029 529.43 110.029 529.43 117.774 495.04 117.774 495.04 143.072 535.52 143.072"></polyline>
            <polyline id="Fill-68" fill="#000000" points="601.09 86.28 575.79 86.28 575.79 151.333 566.5 151.333 566.5 86.28 541.2 86.28 541.2 78.019 601.09 78.019 601.09 86.28"></polyline>
            <polygon id="Fill-69" fill="#000000" points="634.65 151.333 643.94 151.333 643.94 78.019 634.65 78.019"></polygon>
            <polyline id="Fill-70" fill="#000000" points="670.79 95.16 670.79 151.333 661.5 151.333 661.5 78.019 669.34 78.019 714.16 135.328 714.16 78.122 723.45 78.122 723.45 151.333 714.98 151.333 670.79 95.16"></polyline>
            <path d="M771.77,114.676 C771.77,118.394 772.38,121.991 773.58,125.467 C774.79,128.944 776.49,132.023 778.69,134.708 C780.9,137.393 783.55,139.528 786.64,141.11 C789.74,142.695 793.18,143.485 796.97,143.485 C800.89,143.485 804.4,142.66 807.5,141.007 C810.6,139.355 813.23,137.153 815.4,134.398 C817.57,131.647 819.22,128.548 820.36,125.106 C821.49,121.664 822.06,118.187 822.06,114.676 C822.06,110.959 821.46,107.38 820.25,103.937 C819.05,100.496 817.33,97.416 815.09,94.695 C812.85,91.977 810.2,89.842 807.14,88.294 C804.08,86.745 800.69,85.97 796.97,85.97 C793.05,85.97 789.53,86.78 786.44,88.397 C783.34,90.015 780.71,92.201 778.54,94.953 C776.37,97.708 774.7,100.788 773.53,104.195 C772.36,107.603 771.77,111.097 771.77,114.676 Z M796.87,151.85 C791.7,151.85 787.02,150.817 782.82,148.752 C778.62,146.687 774.99,143.882 771.93,140.336 C768.86,136.791 766.51,132.798 764.86,128.358 C763.2,123.918 762.38,119.358 762.38,114.676 C762.38,109.789 763.26,105.125 765.01,100.685 C766.77,96.244 769.21,92.287 772.34,88.81 C775.47,85.335 779.14,82.58 783.34,80.549 C787.54,78.519 792.12,77.502 797.07,77.502 C802.24,77.502 806.92,78.57 811.12,80.704 C815.31,82.838 818.93,85.696 821.96,89.274 C824.99,92.855 827.33,96.848 828.98,101.252 C830.63,105.658 831.46,110.168 831.46,114.779 C831.46,119.668 830.6,124.331 828.88,128.771 C827.16,133.211 824.73,137.17 821.6,140.646 C818.46,144.123 814.8,146.859 810.6,148.855 C806.4,150.852 801.82,151.85 796.87,151.85 L796.87,151.85 Z" id="Fill-71" fill="#000000"></path>
            <polyline id="Fill-72" fill="#000000" points="853.66 95.16 853.66 151.333 844.36 151.333 844.36 78.019 852.21 78.019 897.03 135.328 897.03 78.122 906.32 78.122 906.32 151.333 897.85 151.333 853.66 95.16"></polyline>
        </g>
    </g>
</svg>