<?xml version="1.0" encoding="UTF-8"?>
<svg width="1211.96735px" height="301.011944px" viewBox="0 0 1211.96735 301.011944" version="1.1" xmlns="http://www.w3.org/2000/svg" xmlns:xlink="http://www.w3.org/1999/xlink">
    <title>app-appstore</title>
    <g id="Page-1" stroke="none" stroke-width="1" fill="none" fill-rule="evenodd">
        <g id="Artboard" transform="translate(-146.812649, -81.038056)" fill="#000000" fill-rule="nonzero">
            <g id="app-appstore" transform="translate(0.480000, 0.160000)">
                <path d="M158.52,187.07 C134.09,229.45 149.62,293.77 176.63,332.76 C190.11,352.26 203.76,369.77 222.45,369.77 C222.8,369.77 223.16,369.76 223.52,369.74 C232.3,369.39 238.65,366.69 244.78,364.08 C251.67,361.14 258.8,358.1 269.98,358.1 C280.61,358.1 287.4,361.04 293.96,363.88 C300.43,366.68 307.09,369.58 316.93,369.39 C337.99,369 350.92,350.11 362.32,333.45 C374.23,316.06 380.2,299.17 382.21,292.71 L382.29,292.46 C382.68,291.31 382.13,290.06 381.03,289.55 C381.03,289.55 380.89,289.49 380.86,289.48 C377.15,287.96 344.62,273.53 344.28,234.2 C343.97,202.25 368.69,185.33 373.64,182.26 L373.87,182.11 C374.41,181.77 374.79,181.22 374.91,180.6 C375.04,179.97 374.91,179.32 374.55,178.79 C357.48,153.82 331.33,150.06 320.8,149.61 C319.28,149.45 317.7,149.38 316.12,149.38 C303.75,149.38 291.9,154.05 282.39,157.8 C275.82,160.39 270.14,162.63 266.23,162.63 C261.83,162.63 256.12,160.36 249.52,157.74 C240.68,154.24 230.66,150.26 220.06,150.26 C219.81,150.26 219.56,150.26 219.31,150.27 C194.66,150.63 171.36,164.74 158.52,187.07" id="Fill-32"></path>
                <path d="M320.83,80.88 C305.9,81.49 287.98,90.68 277.28,103.22 C268.18,113.75 259.3,131.33 261.64,149.04 C261.78,150.15 262.69,151 263.8,151.09 C264.81,151.17 265.84,151.21 266.86,151.21 C281.46,151.21 297.21,143.13 307.97,130.13 C319.29,116.4 325.01,98.77 323.28,82.99 C323.14,81.75 322.05,80.83 320.83,80.88" id="Fill-33"></path>
                <path d="M520.52,156.84 C527.12,156.84 532.95,155.52 537.99,152.9 C543.03,150.28 546.92,146.61 549.65,141.91 C552.37,137.21 553.73,131.83 553.73,125.76 C553.73,119.7 552.37,114.32 549.65,109.61 C546.92,104.91 543.03,101.25 537.99,98.63 C532.95,96 527.12,94.69 520.52,94.69 L497.82,94.69 L497.82,156.84 L520.52,156.84 Z M492.61,89.99 L520.92,89.99 C528.35,89.99 534.94,91.52 540.7,94.59 C546.46,97.66 550.94,101.9 554.14,107.31 C557.34,112.73 558.95,118.88 558.95,125.76 C558.95,132.65 557.34,138.8 554.14,144.21 C550.94,149.63 546.46,153.87 540.7,156.94 C534.94,160 528.35,161.54 520.92,161.54 L492.61,161.54 L492.61,89.99 L492.61,89.99 Z" id="Fill-34"></path>
                <path d="M607.24,154.48 C610.48,152.58 613.03,149.92 614.91,146.51 C616.78,143.11 617.72,139.22 617.72,134.86 C617.72,130.5 616.78,126.62 614.91,123.21 C613.03,119.8 610.48,117.14 607.24,115.24 C604,113.33 600.34,112.37 596.25,112.37 C592.16,112.37 588.5,113.33 585.26,115.24 C582.03,117.14 579.47,119.8 577.6,123.21 C575.72,126.62 574.79,130.5 574.79,134.86 C574.79,139.22 575.72,143.11 577.6,146.51 C579.47,149.92 582.03,152.58 585.26,154.48 C588.5,156.39 592.16,157.35 596.25,157.35 C600.34,157.35 604,156.39 607.24,154.48 Z M582.61,158.47 C578.55,156.15 575.37,152.93 573.05,148.81 C570.73,144.69 569.58,140.04 569.58,134.86 C569.58,129.68 570.73,125.03 573.05,120.91 C575.37,116.79 578.55,113.57 582.61,111.25 C586.66,108.93 591.21,107.77 596.25,107.77 C601.29,107.77 605.84,108.93 609.9,111.25 C613.95,113.57 617.14,116.79 619.45,120.91 C621.77,125.03 622.93,129.68 622.93,134.86 C622.93,140.04 621.77,144.69 619.45,148.81 C617.14,152.93 613.95,156.15 609.9,158.47 C605.84,160.79 601.29,161.95 596.25,161.95 C591.21,161.95 586.66,160.79 582.61,158.47 L582.61,158.47 Z" id="Fill-35"></path>
                <polyline id="Fill-36" points="713.49 108.18 693.25 161.54 688.44 161.54 670.46 115.24 652.36 161.54 647.66 161.54 627.43 108.18 632.33 108.18 650.12 155.81 668.31 108.18 672.7 108.18 690.8 155.71 708.78 108.18 713.49 108.18"></polyline>
                <path d="M767.25,113.6 C771.13,117.48 773.07,123.07 773.07,130.36 L773.07,161.54 L767.96,161.54 L767.96,130.77 C767.96,124.78 766.45,120.21 763.42,117.07 C760.38,113.94 756.14,112.37 750.69,112.37 C744.42,112.37 739.48,114.25 735.87,118 C732.26,121.74 730.45,126.79 730.45,133.12 L730.45,161.54 L725.34,161.54 L725.34,108.18 L730.25,108.18 L730.25,119.73 C732.09,115.99 734.83,113.05 738.48,110.94 C742.12,108.83 746.43,107.77 751.41,107.77 C758.08,107.77 763.37,109.72 767.25,113.6" id="Fill-37"></path>
                <polygon id="Fill-38" points="794.13 161.54 799.24 161.54 799.24 85.7 794.13 85.7"></polygon>
                <path d="M852.64,154.48 C855.88,152.58 858.43,149.92 860.31,146.51 C862.18,143.11 863.12,139.22 863.12,134.86 C863.12,130.5 862.18,126.62 860.31,123.21 C858.43,119.8 855.88,117.14 852.64,115.24 C849.41,113.33 845.74,112.37 841.66,112.37 C837.57,112.37 833.9,113.33 830.67,115.24 C827.43,117.14 824.88,119.8 823,123.21 C821.13,126.62 820.19,130.5 820.19,134.86 C820.19,139.22 821.13,143.11 823,146.51 C824.88,149.92 827.43,152.58 830.67,154.48 C833.9,156.39 837.57,157.35 841.66,157.35 C845.74,157.35 849.41,156.39 852.64,154.48 Z M828.01,158.47 C823.96,156.15 820.77,152.93 818.45,148.81 C816.14,144.69 814.98,140.04 814.98,134.86 C814.98,129.68 816.14,125.03 818.45,120.91 C820.77,116.79 823.96,113.57 828.01,111.25 C832.06,108.93 836.61,107.77 841.66,107.77 C846.7,107.77 851.25,108.93 855.3,111.25 C859.35,113.57 862.54,116.79 864.86,120.91 C867.17,125.03 868.33,129.68 868.33,134.86 C868.33,140.04 867.17,144.69 864.86,148.81 C862.54,152.93 859.35,156.15 855.3,158.47 C851.25,160.79 846.7,161.95 841.66,161.95 C836.61,161.95 832.06,160.79 828.01,158.47 L828.01,158.47 Z" id="Fill-39"></path>
                <path d="M910.39,154.69 C913.49,152.64 915.82,149.68 917.39,145.8 L917.39,135.78 L899.2,135.78 C893.95,135.78 890.15,136.73 887.8,138.64 C885.45,140.55 884.28,143.17 884.28,146.51 C884.28,149.99 885.57,152.73 888.16,154.74 C890.75,156.75 894.4,157.75 899.1,157.75 C903.53,157.75 907.29,156.73 910.39,154.69 Z M917.19,112.83 C920.73,116.21 922.5,121.16 922.5,127.71 L922.5,161.54 L917.6,161.54 L917.6,152.03 C915.89,155.17 913.41,157.6 910.14,159.34 C906.87,161.08 902.95,161.95 898.38,161.95 C892.45,161.95 887.77,160.55 884.33,157.75 C880.89,154.96 879.17,151.28 879.17,146.72 C879.17,142.29 880.75,138.69 883.92,135.93 C887.09,133.17 892.15,131.79 899.1,131.79 L917.39,131.79 L917.39,127.5 C917.39,122.53 916.05,118.75 913.36,116.16 C910.66,113.57 906.73,112.27 901.55,112.27 C898.01,112.27 894.62,112.88 891.38,114.11 C888.14,115.34 885.4,116.97 883.15,119.02 L880.6,115.34 C883.26,112.95 886.46,111.1 890.21,109.77 C893.95,108.44 897.87,107.77 901.96,107.77 C908.57,107.77 913.65,109.46 917.19,112.83 L917.19,112.83 Z" id="Fill-40"></path>
                <path d="M975.5,154.48 C978.73,152.58 981.29,149.92 983.16,146.51 C985.04,143.11 985.97,139.22 985.97,134.86 C985.97,130.5 985.04,126.62 983.16,123.21 C981.29,119.8 978.73,117.14 975.5,115.24 C972.26,113.33 968.6,112.37 964.51,112.37 C960.42,112.37 956.76,113.33 953.52,115.24 C950.29,117.14 947.73,119.8 945.86,123.21 C943.98,126.62 943.05,130.5 943.05,134.86 C943.05,139.22 943.98,143.11 945.86,146.51 C947.73,149.92 950.29,152.58 953.52,154.48 C956.76,156.39 960.42,157.35 964.51,157.35 C968.6,157.35 972.26,156.39 975.5,154.48 Z M991.08,85.7 L991.08,161.54 L986.08,161.54 L986.08,148.97 C983.96,153.12 981,156.32 977.18,158.57 C973.37,160.82 969.04,161.95 964.2,161.95 C959.23,161.95 954.73,160.79 950.71,158.47 C946.69,156.15 943.54,152.95 941.26,148.86 C938.97,144.77 937.83,140.11 937.83,134.86 C937.83,129.61 938.97,124.93 941.26,120.81 C943.54,116.68 946.69,113.48 950.71,111.2 C954.73,108.92 959.23,107.77 964.2,107.77 C968.97,107.77 973.25,108.9 977.03,111.15 C980.81,113.4 983.79,116.53 985.97,120.55 L985.97,85.7 L991.08,85.7 L991.08,85.7 Z" id="Fill-41"></path>
                <path d="M1070.76,154.48 C1073.99,152.58 1076.55,149.92 1078.42,146.51 C1080.29,143.11 1081.23,139.22 1081.23,134.86 C1081.23,130.5 1080.29,126.62 1078.42,123.21 C1076.55,119.8 1073.99,117.14 1070.76,115.24 C1067.52,113.33 1063.86,112.37 1059.77,112.37 C1055.68,112.37 1052.02,113.33 1048.78,115.24 C1045.54,117.14 1042.99,119.8 1041.11,123.21 C1039.24,126.62 1038.3,130.5 1038.3,134.86 C1038.3,139.22 1039.24,143.11 1041.11,146.51 C1042.99,149.92 1045.54,152.58 1048.78,154.48 C1052.02,156.39 1055.68,157.35 1059.77,157.35 C1063.86,157.35 1067.52,156.39 1070.76,154.48 Z M1046.12,158.47 C1042.07,156.15 1038.88,152.93 1036.57,148.81 C1034.25,144.69 1033.09,140.04 1033.09,134.86 C1033.09,129.68 1034.25,125.03 1036.57,120.91 C1038.88,116.79 1042.07,113.57 1046.12,111.25 C1050.18,108.93 1054.72,107.77 1059.77,107.77 C1064.81,107.77 1069.36,108.93 1073.41,111.25 C1077.47,113.57 1080.65,116.79 1082.97,120.91 C1085.29,125.03 1086.44,129.68 1086.44,134.86 C1086.44,140.04 1085.29,144.69 1082.97,148.81 C1080.65,152.93 1077.47,156.15 1073.41,158.47 C1069.36,160.79 1064.81,161.95 1059.77,161.95 C1054.72,161.95 1050.18,160.79 1046.12,158.47 L1046.12,158.47 Z" id="Fill-42"></path>
                <path d="M1144.19,113.6 C1148.08,117.48 1150.02,123.07 1150.02,130.36 L1150.02,161.54 L1144.91,161.54 L1144.91,130.77 C1144.91,124.78 1143.39,120.21 1140.36,117.07 C1137.33,113.94 1133.09,112.37 1127.64,112.37 C1121.36,112.37 1116.43,114.25 1112.81,118 C1109.2,121.74 1107.4,126.79 1107.4,133.12 L1107.4,161.54 L1102.29,161.54 L1102.29,108.18 L1107.19,108.18 L1107.19,119.73 C1109.03,115.99 1111.77,113.05 1115.42,110.94 C1119.07,108.83 1123.38,107.77 1128.35,107.77 C1135.03,107.77 1140.31,109.72 1144.19,113.6" id="Fill-43"></path>
                <path d="M1223.81,158.16 C1222.52,159.39 1220.9,160.33 1218.96,160.97 C1217.02,161.62 1214.99,161.95 1212.88,161.95 C1208.24,161.95 1204.66,160.67 1202.14,158.11 C1199.62,155.56 1198.36,152 1198.36,147.43 L1198.36,112.58 L1188.55,112.58 L1188.55,108.18 L1198.36,108.18 L1198.36,96.53 L1203.47,96.53 L1203.47,108.18 L1220.44,108.18 L1220.44,112.58 L1203.47,112.58 L1203.47,146.92 C1203.47,150.4 1204.31,153.04 1205.98,154.84 C1207.65,156.65 1210.12,157.55 1213.39,157.55 C1216.73,157.55 1219.48,156.56 1221.67,154.59 L1223.81,158.16" id="Fill-44"></path>
                <path d="M1279.93,113.6 C1283.81,117.48 1285.75,123.07 1285.75,130.36 L1285.75,161.54 L1280.64,161.54 L1280.64,130.77 C1280.64,124.78 1279.12,120.21 1276.09,117.07 C1273.06,113.94 1268.82,112.37 1263.37,112.37 C1257.1,112.37 1252.16,114.25 1248.55,118 C1244.93,121.74 1243.13,126.79 1243.13,133.12 L1243.13,161.54 L1238.02,161.54 L1238.02,85.7 L1243.13,85.7 L1243.13,119.32 C1244.97,115.64 1247.69,112.8 1251.31,110.79 C1254.92,108.78 1259.18,107.77 1264.08,107.77 C1270.76,107.77 1276.04,109.72 1279.93,113.6" id="Fill-45"></path>
                <path d="M1316.51,114.77 C1313.52,116.45 1311.11,118.8 1309.31,121.83 C1307.5,124.86 1306.46,128.28 1306.19,132.1 L1347.07,132.1 C1346.87,128.28 1345.85,124.88 1344.01,121.88 C1342.17,118.88 1339.75,116.53 1336.75,114.83 C1333.75,113.12 1330.38,112.27 1326.63,112.27 C1322.89,112.27 1319.51,113.11 1316.51,114.77 Z M1351.98,136.09 L1306.09,136.09 C1306.23,140.24 1307.28,143.94 1309.26,147.18 C1311.23,150.41 1313.91,152.92 1317.28,154.69 C1320.65,156.46 1324.45,157.35 1328.68,157.35 C1332.15,157.35 1335.37,156.72 1338.34,155.45 C1341.3,154.2 1343.77,152.34 1345.75,149.88 L1348.71,153.26 C1346.39,156.05 1343.48,158.2 1339.97,159.7 C1336.46,161.2 1332.66,161.95 1328.57,161.95 C1323.26,161.95 1318.52,160.79 1314.37,158.47 C1310.21,156.15 1306.96,152.95 1304.61,148.86 C1302.26,144.77 1301.08,140.11 1301.08,134.86 C1301.08,129.68 1302.19,125.03 1304.4,120.91 C1306.62,116.79 1309.67,113.57 1313.55,111.25 C1317.43,108.93 1321.79,107.77 1326.63,107.77 C1331.47,107.77 1335.81,108.92 1339.66,111.2 C1343.51,113.48 1346.55,116.67 1348.76,120.75 C1350.98,124.84 1352.08,129.48 1352.08,134.66 L1351.98,136.09 L1351.98,136.09 Z" id="Fill-46"></path>
                <path d="M560.77,301.89 L537.72,248.44 L514.84,301.89 L560.77,301.89 Z M568.28,319.7 L507.15,319.7 L495.1,348 L471.69,348 L526.71,225.73 L549.07,225.73 L604.26,348 L580.51,348 L568.28,319.7 L568.28,319.7 Z" id="Fill-47"></path>
                <path d="M686.79,322.5 C691.97,317.14 694.57,310.1 694.57,301.37 C694.57,292.63 691.97,285.59 686.79,280.23 C681.61,274.88 675,272.19 666.97,272.19 C661.73,272.19 657.01,273.39 652.82,275.78 C648.63,278.16 645.31,281.57 642.86,285.99 C640.42,290.42 639.2,295.54 639.2,301.37 C639.2,307.19 640.42,312.31 642.86,316.74 C645.31,321.16 648.63,324.57 652.82,326.95 C657.01,329.34 661.73,330.53 666.97,330.53 C675,330.53 681.61,327.86 686.79,322.5 Z M693.78,259.62 C700.94,263.58 706.56,269.17 710.64,276.39 C714.71,283.61 716.75,291.93 716.75,301.37 C716.75,310.8 714.71,319.15 710.64,326.43 C706.56,333.71 700.94,339.33 693.78,343.28 C686.62,347.24 678.5,349.22 669.41,349.22 C656.84,349.22 646.88,345.03 639.55,336.65 L639.55,381.89 L617.71,381.89 L617.71,254.73 L638.5,254.73 L638.5,266.96 C642.11,262.53 646.56,259.21 651.86,257 C657.16,254.79 663.01,253.68 669.41,253.68 C678.5,253.68 686.62,255.66 693.78,259.62 L693.78,259.62 Z" id="Fill-48"></path>
                <path d="M806.61,322.5 C811.79,317.14 814.39,310.1 814.39,301.37 C814.39,292.63 811.79,285.59 806.61,280.23 C801.43,274.88 794.82,272.19 786.79,272.19 C781.55,272.19 776.83,273.39 772.64,275.78 C768.45,278.16 765.13,281.57 762.69,285.99 C760.24,290.42 759.02,295.54 759.02,301.37 C759.02,307.19 760.24,312.31 762.69,316.74 C765.13,321.16 768.45,324.57 772.64,326.95 C776.83,329.34 781.55,330.53 786.79,330.53 C794.82,330.53 801.43,327.86 806.61,322.5 Z M813.6,259.62 C820.76,263.58 826.38,269.17 830.46,276.39 C834.53,283.61 836.57,291.93 836.57,301.37 C836.57,310.8 834.53,319.15 830.46,326.43 C826.38,333.71 820.76,339.33 813.6,343.28 C806.44,347.24 798.32,349.22 789.23,349.22 C776.66,349.22 766.7,345.03 759.37,336.65 L759.37,381.89 L737.53,381.89 L737.53,254.73 L758.32,254.73 L758.32,266.96 C761.93,262.53 766.38,259.21 771.68,257 C776.98,254.79 782.83,253.68 789.23,253.68 C798.32,253.68 806.44,255.66 813.6,259.62 L813.6,259.62 Z" id="Fill-49"></path>
                <path d="M918.22,345.73 C909.43,343.05 902.47,339.5 897.35,335.08 L905.21,317.43 C910.21,321.39 916.36,324.63 923.64,327.13 C930.91,329.63 938.22,330.88 945.56,330.88 C954.64,330.88 961.42,329.43 965.91,326.52 C970.39,323.61 972.63,319.76 972.63,314.99 C972.63,311.5 971.38,308.61 968.88,306.34 C966.37,304.07 963.2,302.3 959.36,301.01 C955.51,299.74 950.27,298.28 943.64,296.65 C934.32,294.44 926.78,292.22 921.02,290.01 C915.25,287.8 910.3,284.34 906.17,279.62 C902.03,274.9 899.97,268.53 899.97,260.49 C899.97,253.74 901.8,247.6 905.47,242.07 C909.14,236.54 914.67,232.14 922.06,228.88 C929.46,225.62 938.51,223.99 949.23,223.99 C956.68,223.99 964.01,224.92 971.23,226.78 C978.45,228.65 984.68,231.32 989.92,234.82 L982.76,252.46 C977.4,249.31 971.81,246.93 965.99,245.3 C960.17,243.67 954.52,242.85 949.05,242.85 C940.08,242.85 933.42,244.37 929.05,247.39 C924.68,250.42 922.5,254.44 922.5,259.44 C922.5,262.94 923.75,265.79 926.26,268 C928.76,270.22 931.93,271.96 935.78,273.24 C939.62,274.53 944.86,275.98 951.5,277.61 C960.58,279.71 968.03,281.89 973.85,284.16 C979.68,286.43 984.65,289.9 988.79,294.55 C992.92,299.21 994.99,305.5 994.99,313.42 C994.99,320.17 993.15,326.29 989.49,331.76 C985.82,337.23 980.26,341.6 972.81,344.86 C965.35,348.12 956.27,349.75 945.56,349.75 C936.13,349.75 927.01,348.41 918.22,345.73" id="Fill-50"></path>
                <path d="M1071.49,342.94 C1068.93,345.03 1065.81,346.6 1062.15,347.65 C1058.48,348.7 1054.61,349.22 1050.53,349.22 C1040.28,349.22 1032.37,346.55 1026.78,341.19 C1021.19,335.83 1018.39,328.03 1018.39,317.78 L1018.39,272.89 L1003.02,272.89 L1003.02,255.43 L1018.39,255.43 L1018.39,234.12 L1040.23,234.12 L1040.23,255.43 L1065.2,255.43 L1065.2,272.89 L1040.23,272.89 L1040.23,317.26 C1040.23,321.8 1041.33,325.27 1043.55,327.65 C1045.76,330.04 1048.96,331.23 1053.15,331.23 C1058.04,331.23 1062.12,329.95 1065.38,327.39 L1071.49,342.94" id="Fill-51"></path>
                <path d="M1148.17,322.5 C1153.41,317.14 1156.03,310.1 1156.03,301.37 C1156.03,292.63 1153.41,285.59 1148.17,280.23 C1142.93,274.88 1136.29,272.19 1128.26,272.19 C1120.23,272.19 1113.61,274.88 1108.44,280.23 C1103.25,285.59 1100.66,292.63 1100.66,301.37 C1100.66,310.1 1103.25,317.14 1108.44,322.5 C1113.61,327.86 1120.23,330.53 1128.26,330.53 C1136.29,330.53 1142.93,327.86 1148.17,322.5 Z M1102.76,343.11 C1095.19,339.04 1089.28,333.36 1085.03,326.08 C1080.78,318.8 1078.65,310.56 1078.65,301.37 C1078.65,292.17 1080.78,283.96 1085.03,276.74 C1089.28,269.52 1095.19,263.87 1102.76,259.79 C1110.33,255.72 1118.83,253.68 1128.26,253.68 C1137.81,253.68 1146.37,255.72 1153.94,259.79 C1161.5,263.87 1167.41,269.52 1171.66,276.74 C1175.91,283.96 1178.04,292.17 1178.04,301.37 C1178.04,310.56 1175.91,318.8 1171.66,326.08 C1167.41,333.36 1161.5,339.04 1153.94,343.11 C1146.37,347.19 1137.81,349.22 1128.26,349.22 C1118.83,349.22 1110.33,347.19 1102.76,343.11 L1102.76,343.11 Z" id="Fill-52"></path>
                <path d="M1252.97,253.68 L1252.97,274.47 C1251.11,274.12 1249.42,273.94 1247.91,273.94 C1239.4,273.94 1232.77,276.42 1227.99,281.37 C1223.22,286.32 1220.83,293.45 1220.83,302.76 L1220.83,348 L1199,348 L1199,254.73 L1219.78,254.73 L1219.78,268.35 C1226.07,258.57 1237.13,253.68 1252.97,253.68" id="Fill-53"></path>
                <path d="M1293.41,277.35 C1288.57,281.48 1285.63,286.98 1284.59,293.85 L1337.51,293.85 C1336.58,287.1 1333.73,281.63 1328.95,277.43 C1324.18,273.24 1318.24,271.15 1311.14,271.15 C1304.15,271.15 1298.24,273.22 1293.41,277.35 Z M1357.95,308.35 L1284.76,308.35 C1286.04,315.22 1289.39,320.67 1294.8,324.68 C1300.22,328.7 1306.94,330.71 1314.98,330.71 C1325.22,330.71 1333.67,327.33 1340.31,320.58 L1352.01,334.03 C1347.82,339.04 1342.52,342.82 1336.11,345.38 C1329.71,347.94 1322.49,349.22 1314.45,349.22 C1304.21,349.22 1295.18,347.19 1287.38,343.11 C1279.58,339.04 1273.55,333.36 1269.3,326.08 C1265.05,318.8 1262.93,310.56 1262.93,301.37 C1262.93,292.28 1264.99,284.1 1269.13,276.82 C1273.26,269.55 1279,263.87 1286.33,259.79 C1293.67,255.72 1301.94,253.68 1311.14,253.68 C1320.22,253.68 1328.34,255.69 1335.5,259.71 C1342.66,263.72 1348.25,269.37 1352.27,276.65 C1356.29,283.93 1358.3,292.34 1358.3,301.89 C1358.3,303.4 1358.18,305.56 1357.95,308.35 L1357.95,308.35 Z" id="Fill-54"></path>
            </g>
        </g>
    </g>
</svg>